<svg xmlns="http://www.w3.org/2000/svg" xmlns:xlink="http://www.w3.org/1999/xlink" version="1.1" width="256" height="256" viewBox="0 0 256 256" xml:space="preserve">
<g style="stroke: none; stroke-width: 0; stroke-dasharray: none; stroke-linecap: butt; stroke-linejoin: miter; stroke-miterlimit: 10; fill: none; fill-rule: nonzero; opacity: 1;" transform="translate(1.4065934065934016 1.4065934065934016) scale(2.81 2.81)">
	<path d="M 44.597 71.298 c 0.014 0.006 0.031 0.004 0.045 0.01 c 0.116 0.045 0.235 0.075 0.358 0.075 s 0.242 -0.031 0.358 -0.075 c 0.015 -0.006 0.031 -0.003 0.045 -0.01 l 23.643 -10.416 c 0.362 -0.16 0.597 -0.519 0.597 -0.915 V 30.034 c 0 -0.092 -0.015 -0.182 -0.039 -0.269 c -0.008 -0.029 -0.022 -0.055 -0.033 -0.083 c -0.021 -0.056 -0.044 -0.11 -0.075 -0.161 c -0.018 -0.03 -0.04 -0.057 -0.061 -0.085 c -0.033 -0.043 -0.067 -0.084 -0.106 -0.121 c -0.027 -0.026 -0.055 -0.049 -0.085 -0.072 c -0.019 -0.015 -0.034 -0.033 -0.055 -0.046 c -0.027 -0.018 -0.057 -0.027 -0.085 -0.041 c -0.02 -0.011 -0.036 -0.027 -0.058 -0.036 L 45.403 18.702 c -0.257 -0.113 -0.55 -0.113 -0.807 0 L 20.954 29.119 c -0.021 0.009 -0.037 0.025 -0.057 0.036 c -0.028 0.015 -0.059 0.024 -0.086 0.042 c -0.021 0.013 -0.036 0.032 -0.055 0.047 c -0.03 0.023 -0.057 0.046 -0.084 0.071 c -0.039 0.038 -0.074 0.078 -0.106 0.121 c -0.021 0.028 -0.043 0.055 -0.061 0.086 c -0.03 0.051 -0.053 0.104 -0.074 0.159 c -0.011 0.028 -0.025 0.055 -0.033 0.084 c -0.024 0.087 -0.039 0.176 -0.039 0.269 v 29.933 c 0 0.396 0.234 0.755 0.597 0.915 L 44.597 71.298 z M 67.643 59.315 L 46 68.85 V 41.102 l 9.449 -4.163 v 18.251 c 0 0.553 0.447 1 1 1 c 0.553 0 1 -0.447 1 -1 V 36.058 l 2.92 -1.286 l 7.275 -3.205 V 59.315 z M 45 20.709 l 21.163 9.324 l -9.714 4.28 l -21.162 -9.324 L 45 20.709 z M 32.806 26.082 l 21.162 9.324 L 45 39.357 l -21.163 -9.324 L 32.806 26.082 z M 22.357 31.567 l 7.275 3.205 L 44 41.102 V 68.85 l -21.643 -9.536 V 31.567 z" style="stroke: none; stroke-width: 1; stroke-dasharray: none; stroke-linecap: butt; stroke-linejoin: miter; stroke-miterlimit: 10; fill: rgb(0,0,0); fill-rule: nonzero; opacity: 1;" transform=" matrix(1 0 0 1 0 0) " stroke-linecap="round"/>
	<path d="M 73.321 10.035 C 54.722 -5.028 27.65 -2.782 11.742 14.702 l -0.218 -8.096 c -0.015 -0.552 -0.462 -0.979 -1.026 -0.973 C 9.946 5.648 9.51 6.107 9.525 6.66 l 0.287 10.676 c 0 0.013 0.008 0.025 0.009 0.038 c 0.004 0.068 0.027 0.131 0.045 0.198 c 0.016 0.059 0.026 0.119 0.053 0.174 c 0.027 0.056 0.07 0.101 0.107 0.152 c 0.034 0.045 0.056 0.099 0.098 0.138 c 0.01 0.01 0.025 0.013 0.035 0.022 c 0.01 0.008 0.013 0.02 0.023 0.028 c 0.036 0.029 0.079 0.038 0.117 0.062 c 0.062 0.038 0.122 0.077 0.191 0.1 c 0.061 0.021 0.122 0.027 0.185 0.035 c 0.046 0.007 0.089 0.026 0.136 0.026 c 0.009 0 0.018 0 0.027 0 l 10.676 -0.288 c 0.552 -0.015 0.988 -0.474 0.973 -1.026 c -0.015 -0.552 -0.469 -0.989 -1.026 -0.973 l -8.431 0.227 c 15.177 -16.894 41.189 -19.113 59.032 -4.66 c 13.121 10.628 18.821 28.05 14.522 44.384 c -0.141 0.534 0.178 1.081 0.712 1.222 c 0.086 0.022 0.171 0.033 0.256 0.033 c 0.443 0 0.848 -0.297 0.966 -0.745 C 93.017 39.388 87.052 21.157 73.321 10.035 z" style="stroke: none; stroke-width: 1; stroke-dasharray: none; stroke-linecap: butt; stroke-linejoin: miter; stroke-miterlimit: 10; fill: rgb(0,0,0); fill-rule: nonzero; opacity: 1;" transform=" matrix(1 0 0 1 0 0) " stroke-linecap="round"/>
	<path d="M 80.18 72.626 c -0.004 -0.067 -0.026 -0.129 -0.044 -0.193 c -0.017 -0.063 -0.028 -0.128 -0.057 -0.185 c -0.022 -0.045 -0.058 -0.082 -0.088 -0.123 c -0.046 -0.065 -0.089 -0.129 -0.149 -0.181 c -0.01 -0.009 -0.014 -0.021 -0.024 -0.029 c -0.037 -0.03 -0.082 -0.039 -0.121 -0.063 c -0.061 -0.036 -0.119 -0.074 -0.187 -0.097 c -0.068 -0.023 -0.137 -0.029 -0.208 -0.037 c -0.048 -0.006 -0.091 -0.026 -0.141 -0.025 l -10.676 0.287 c -0.552 0.016 -0.987 0.475 -0.973 1.027 c 0.015 0.553 0.468 0.983 1.027 0.973 l 8.43 -0.227 c -15.177 16.895 -41.186 19.113 -59.031 4.659 C 4.655 67.652 -0.996 50.049 3.541 33.566 c 0.146 -0.533 -0.167 -1.083 -0.699 -1.23 c -0.534 -0.147 -1.083 0.166 -1.23 0.699 c -4.748 17.25 1.166 35.672 15.067 46.931 c 8.317 6.736 18.327 10.011 28.278 10.011 c 12.299 0 24.506 -5.006 33.301 -14.668 l 0.217 8.086 c 0.015 0.543 0.46 0.973 0.999 0.973 c 0.01 0 0.019 0 0.028 0 c 0.552 -0.016 0.987 -0.475 0.973 -1.027 l -0.287 -10.676 C 80.188 72.651 80.18 72.64 80.18 72.626 z" style="stroke: none; stroke-width: 1; stroke-dasharray: none; stroke-linecap: butt; stroke-linejoin: miter; stroke-miterlimit: 10; fill: rgb(0,0,0); fill-rule: nonzero; opacity: 1;" transform=" matrix(1 0 0 1 0 0) " stroke-linecap="round"/>
</g>
</svg>